<mxfile host="65bd71144e">
    <diagram id="fEH0jCM9jVXo35o1cyl-" name="Page-1">
        <mxGraphModel dx="2119" dy="971" grid="1" gridSize="10" guides="1" tooltips="1" connect="1" arrows="1" fold="1" page="1" pageScale="1" pageWidth="850" pageHeight="1100" math="0" shadow="0">
            <root>
                <mxCell id="0"/>
                <mxCell id="1" parent="0"/>
                <mxCell id="76" value="" style="shape=image;verticalLabelPosition=bottom;labelBackgroundColor=default;verticalAlign=top;aspect=fixed;imageAspect=0;image=data:image/png,iVBORw0KGgoAAAANSUhEUgAAASsAAABSCAYAAAAM/vIJAAAJoklEQVR4nO3ce1TUZR7H8fcICOiAAipqKgJGXtI0t9KT7ilzadO0C7aLtZmULVlupulq2VJaHrtYWuoxFV0sCysvq8fCxNYtNSw11ktighdQBAXBUFGcGWf/YJ2VHVQuQ/icPq+/YJ7ffH/fH4fz4fk9v2ew+A+9zonTiYjINcliwWm7QAMFlYhc05xOcEKD+u5DRKQqFFYiYgSFlYgYQWElIkZQWImIERRWImIEhZWIGEFhJSJGUFiJiBEUViJiBIWViBhBYSUiRlBYiYgRFFYiYgSFlYgYQWElIkZQWImIERRWImIEhZWIGEFhJSJGUFiJiBEUViJiBIWViBhBYSUiRlBYiYgRFFYiYgSFlYgYQWElIkZQWImIERRWImIEhZWIGMG7vhv4NXvq7jjeGf5atd6T9tNW7nrlftf3Vr/GDO0bQ+ztDxIRGkaQNYiCkkK27NvGvHVJbMrY4lbD28ubkiXZlda3OeycOFXE1qwfSFy/hNQdG6rUV13UFLmUxT+2tbO+m/i1GtonhklDnnd7PbxFOywWC/knj1NadrbC2A8HdjDsvZEAdGoTxWfjkogIDQOgpPQUZ8+fJbRpC9fxM9e8z4sfvVqhxqXBcrQon3O2MteYn48vrYNbur5PXP8hoxe9gNN55V+TuqjpKTPiphIfPZx565IY8/dJv8g5xbOcNqdmVvUpedNykjctd3u9ICmTxr6NiH9/7GVnIc0Dm7EuYTkhAcFs2beN8R+8zPb9/wYgwN/KqHtGMPHBMTx371McLsxl7peLKq0z7L2RfPvT9xVea9IokOcHP8PYwU8zov+jZObtZ9YXC6p8XXVRU0RrVoZ6e/irhAQEk35wJwOn/tEVVACnzp5m2oqZTP7kDQAS/jAePx/fKtf+ubSEhKXTmLcuCYBx943CYrHUqt+6qCm/LgorAwVbg7j/1gEATPxwCmfPn6v0uPmpizlnK6NJo0D6df1ttc+zIPUDoHwWF9UqsuYNV7Fmk0aBTHxgNNve/IqCpEzyFmbwZcIyYvs8WGmwDe0TQ2lyLqkvr6Bz2458PukTCpOyWDVxCQBZc7ZTmpxLfPRwAOKjh1OanEtBUqZbrftuHcDavy0jf+Fefl6SzZ5305gRN5VWQaEeuW6pPd0GGuj3Pe7C28ubgpJCNmakXfa40+fOsHhDMpEt2+Pf0K/a58kpPOL6OsjatEa9VrVmRGgYqyZ+TGTL9tgddvbmZhLgb6Vvp9707dSbgT2jiZs9CrvD7lbzuuBWpCYsd9Wz+lkBWJu+nuCAILqF3UhEaBgHjmWzM3u3W7hP+1MCowfGu/rLLTpKZMsI4qOHM6T3YKKnxJBxZJ9Hrl9qTmFloPAW7QDYnbP3qsfWZkE5rHlb19dFp4trXOdqNb29vPlw9PtEtmzPv37cTNzsURw7eRyAPp16kTxmATG9BpGVd5DJn77hVrN9i3Zk5h1g5Pxx7Di02xVooxInAP9bYE/dscHt53FzxE2MHhjPebuNh6bHudYIrwtuxdKxifSM7M67j08jekqMR65fak63gQZq0aQ5ACfP/Fyn57l4+1RQUkhm3oE6qxnTaxA9wrtx7ORxYt9+whVUAJsytvDswokAjL43nmaBIW41z5SVcs9rD7F6awrZBYfJLcqrcj+3dOgBQPrBnRUeZuQW5TE26SXKbOfpGdkdX5+G1b9Y8SiFlYF8vH0AcFxweLy2f0M/urTtyKwRr/Nk/2EATF81u1bbDK5WM6bXIAA+2riMkrOn3N7/j++/4MCxbPx8fIm+6U638QP5hzhalF+j3i6+r3ObG+ge3rXC2NasdIKGhRPyWCRltvM1qi+eo9tAA128zfFq4FXrWutfWXnF8TkpicxOSazTmlGtOwBUeKJ5KafTyY+HM4gIDaNz2xuq1cvVpKSvZ2NGGn079Wbz1BS+z/qB9Tu/ZsOujXyXub1O/iBIzSisDFR85iRQ/vSstg4X5lZYcLY7bJw4XcyOQ7tJ3riC9IM767xms8BgoHx7w+XkFR8DINA/oNr9XIndYefeqbHER8cxov+j3HZ9T267vieTYsZytCifGWvmMnftIi44L3j0vFJ9CisD7TuaBUCXKswypsS+QPsW7fhk80o+377ObTxu9ii3DZy1Vd2aJaWnCLYGudbiKnMxmE+c8sxC/6VsDjuzUxYwO2UBYc3bcueNfRjYM5oBN/+Ot4ZN5vpWETy36EWPn1eqR2tWBvr6x2+54LxAaNMW9L7hlsseZ/VrzKgBTzKk9+BremawN7d831OXth0ve0yP8G4AZOXv9+i52zVrQ2TL9jTy9Qcgu+AwSRuSeWh6HI/MLN/OMKL/ox7buiE1p7Ay0JETR/lieyoAUx9+CR+vyifIcf0exs/Hl+LTJ/nnrm9+yRarZfXWFAAe7/cIAf5Wt/E7utxOVOvyRe4129xnh1dzcd2pgcX91/3jMfPZNWOza+H/UmvT1+N0OmlgaUDzSp5Cyi9LYWWocYsTKCk9Ra+o37D8r4vp0DLcNWb1a8yYQSN5dWj5nqKEpdOu6adZyZuWszc3kyBrUz54di4hAcGusZ6R3Vn4zCwA3l4954rrWpdzcb2re3hXt2BflrYagAkPjOb2jre5Xvfx8mb8/c9isVgoOl3MoeM51T6veJbWrAyVU3iEQdOGsnz8Yvp3u4OdMzaR/9/9SaFNmmOxWHA6nby+8l0WfrWknru9sjLbeWLfeYI1Ly7l7u79yJqznYwjP9HItxFRrcs/krMsbTVvrJxZo/op6V8xOXYit3ToQc78XdjsNsJH9sBxwcGclET6durNPTf3J/XlFWQXHKbodDHtm7cjyNoUu8POXxIncN5u8+QlSw1oZmWwrVnpdBvbl2krZrI7JwOrX2OCGjclp/AIH29cxh0Jg5jy6Zv13WaV7Du6n1sn9OetVbM4VJBDxzZRhAQE8c2eNB6b9TSPzXoaWyUftamKPYf38ue5Y8jKP4iPlw8nLtmNb3PYGTJ9OE/NG8s3e9II9A+ga7vOnLOV8dm3q+j70kBWfve5py5TakH/z0pErnlOm1MzKxExg8JKRIygsBIRIyisRMQICisRMYLCSkSMoLASESMorETECAorETGCwkpEjKCwEhEjKKxExAgKKxExgsJKRIygsBIRIyisRMQICisRMYLCSkSMoLASESMorETECAorETGCwkpEjKCwEhEjKKxExAgKKxExgsJKRIygsBIRIyisRMQICisRMYK3V5g/eFvquw8RkcrZnTgOncW7QUhD8LKAs747EhH5PxbA4cSRX8Z/AMSraEW4TdofAAAAAElFTkSuQmCC;" vertex="1" parent="1">
                    <mxGeometry x="460" y="52.5" width="299" height="82" as="geometry"/>
                </mxCell>
                <mxCell id="47" value="" style="ellipse;whiteSpace=wrap;html=1;strokeColor=#7D7D7D;fontFamily=Consolas;fontSize=11;fillColor=none;dashed=1;strokeWidth=5;perimeterSpacing=2;" parent="1" vertex="1">
                    <mxGeometry x="-777.2" y="216.8" width="360" height="501.8" as="geometry"/>
                </mxCell>
                <mxCell id="7" value="" style="edgeStyle=none;html=1;" parent="1" source="4" target="6" edge="1">
                    <mxGeometry relative="1" as="geometry"/>
                </mxCell>
                <mxCell id="4" value="&lt;font face=&quot;Consolas&quot; style=&quot;font-size: 21px;&quot;&gt;Register&lt;/font&gt;" style="rounded=1;whiteSpace=wrap;html=1;fontSize=21;" parent="1" vertex="1">
                    <mxGeometry x="549.5" y="177" width="120" height="60" as="geometry"/>
                </mxCell>
                <mxCell id="10" style="edgeStyle=none;html=1;exitX=0;exitY=0.5;exitDx=0;exitDy=0;entryX=1;entryY=0.5;entryDx=0;entryDy=0;startArrow=none;" parent="1" source="29" target="9" edge="1">
                    <mxGeometry relative="1" as="geometry"/>
                </mxCell>
                <mxCell id="78" style="edgeStyle=none;html=1;" edge="1" parent="1" source="6" target="77">
                    <mxGeometry relative="1" as="geometry"/>
                </mxCell>
                <mxCell id="6" value="#port_scan_TCP" style="rounded=1;whiteSpace=wrap;html=1;fontFamily=Consolas;fillColor=#030303;fontColor=#ffffff;strokeColor=#005700;gradientColor=none;gradientDirection=radial;fontSize=19;" parent="1" vertex="1">
                    <mxGeometry x="460" y="281.8" width="300" height="90" as="geometry"/>
                </mxCell>
                <mxCell id="16" style="edgeStyle=none;html=1;" parent="1" source="9" target="15" edge="1">
                    <mxGeometry relative="1" as="geometry"/>
                </mxCell>
                <mxCell id="9" value="" style="image;html=1;image=img/lib/clip_art/computers/Network_128x128.png" parent="1" vertex="1">
                    <mxGeometry x="-493" y="322.6" width="130" height="130" as="geometry"/>
                </mxCell>
                <mxCell id="11" value="" style="points=[];aspect=fixed;html=1;align=center;shadow=0;dashed=0;image;image=img/lib/allied_telesis/computer_and_terminals/Personal_Computer.svg;" parent="1" vertex="1">
                    <mxGeometry x="-620" y="270" width="45.6" height="61.800000000000004" as="geometry"/>
                </mxCell>
                <mxCell id="12" value="" style="points=[];aspect=fixed;html=1;align=center;shadow=0;dashed=0;image;image=img/lib/allied_telesis/computer_and_terminals/Personal_Computer.svg;" parent="1" vertex="1">
                    <mxGeometry x="-707.4" y="340" width="45.6" height="61.800000000000004" as="geometry"/>
                </mxCell>
                <mxCell id="13" value="" style="points=[];aspect=fixed;html=1;align=center;shadow=0;dashed=0;image;image=img/lib/allied_telesis/computer_and_terminals/Personal_Computer.svg;" parent="1" vertex="1">
                    <mxGeometry x="-730" y="450.6" width="45.6" height="61.800000000000004" as="geometry"/>
                </mxCell>
                <mxCell id="14" value="" style="points=[];aspect=fixed;html=1;align=center;shadow=0;dashed=0;image;image=img/lib/allied_telesis/computer_and_terminals/Personal_Computer.svg;" parent="1" vertex="1">
                    <mxGeometry x="-665.6" y="543" width="45.6" height="61.800000000000004" as="geometry"/>
                </mxCell>
                <mxCell id="15" value="" style="points=[];aspect=fixed;html=1;align=center;shadow=0;dashed=0;image;image=img/lib/allied_telesis/computer_and_terminals/Personal_Computer.svg;" parent="1" vertex="1">
                    <mxGeometry x="-593" y="621.8" width="45.6" height="61.800000000000004" as="geometry"/>
                </mxCell>
                <mxCell id="22" style="edgeStyle=none;html=1;" parent="1" source="76" target="4" edge="1">
                    <mxGeometry relative="1" as="geometry">
                        <mxPoint x="597.0751173708918" y="127" as="sourcePoint"/>
                    </mxGeometry>
                </mxCell>
                <mxCell id="23" value="" style="triangle;whiteSpace=wrap;html=1;fillColor=#00FF00;strokeColor=#000000;" parent="1" vertex="1">
                    <mxGeometry x="470" y="101.8" width="20" height="20" as="geometry"/>
                </mxCell>
                <mxCell id="29" value="&lt;font style=&quot;font-size: 18px;&quot;&gt;Ether&lt;/font&gt;" style="rounded=1;whiteSpace=wrap;html=1;fontFamily=Consolas;fillColor=#a20025;fontColor=#ffffff;strokeColor=#6F0000;" parent="1" vertex="1">
                    <mxGeometry x="-320" y="262.6" width="190" height="60" as="geometry"/>
                </mxCell>
                <mxCell id="39" value="&lt;font style=&quot;&quot;&gt;&lt;span style=&quot;font-size: 18px;&quot;&gt;IP&lt;br&gt;&lt;/span&gt;&lt;/font&gt;&lt;font style=&quot;font-size: 11px;&quot;&gt;dst=target&lt;/font&gt;" style="rounded=1;whiteSpace=wrap;html=1;fontFamily=Consolas;fillColor=#60a917;fontColor=#ffffff;strokeColor=#2D7600;" parent="1" vertex="1">
                    <mxGeometry x="-310" y="202.60000000000002" width="170" height="60" as="geometry"/>
                </mxCell>
                <mxCell id="40" value="&lt;font style=&quot;&quot;&gt;&lt;span style=&quot;font-size: 18px;&quot;&gt;TCP SYN&lt;br&gt;&lt;/span&gt;&lt;/font&gt;&lt;font style=&quot;font-size: 11px;&quot;&gt;dport=port range&lt;br&gt;seq=random&lt;br&gt;&lt;/font&gt;" style="rounded=1;whiteSpace=wrap;html=1;fontFamily=Consolas;fillColor=#0050ef;fontColor=#ffffff;strokeColor=#001DBC;" parent="1" vertex="1">
                    <mxGeometry x="-300" y="142.60000000000002" width="150" height="60" as="geometry"/>
                </mxCell>
                <mxCell id="42" value="&lt;font style=&quot;&quot;&gt;&lt;span style=&quot;font-size: 18px;&quot;&gt;IP&lt;br&gt;&lt;/span&gt;&lt;/font&gt;&lt;font style=&quot;font-size: 11px;&quot;&gt;dst=here&lt;/font&gt;" style="rounded=1;whiteSpace=wrap;html=1;fontFamily=Consolas;fillColor=#488011;fontColor=#ffffff;strokeColor=#2D7600;" parent="1" vertex="1">
                    <mxGeometry x="-330" y="484.8" width="170" height="60" as="geometry"/>
                </mxCell>
                <mxCell id="43" value="&lt;font style=&quot;&quot;&gt;&lt;span style=&quot;font-size: 18px;&quot;&gt;TCP SYN ACK&lt;/span&gt;&lt;/font&gt;" style="rounded=1;whiteSpace=wrap;html=1;fontFamily=Consolas;fillColor=#002F8C;fontColor=#ffffff;strokeColor=#001DBC;" parent="1" vertex="1">
                    <mxGeometry x="-320" y="424.8" width="150" height="60" as="geometry"/>
                </mxCell>
                <mxCell id="92" style="edgeStyle=none;html=1;fontSize=19;" edge="1" parent="1" source="15" target="41">
                    <mxGeometry relative="1" as="geometry"/>
                </mxCell>
                <mxCell id="41" value="&lt;font style=&quot;font-size: 18px;&quot;&gt;Ether&lt;/font&gt;" style="rounded=1;whiteSpace=wrap;html=1;fontFamily=Consolas;fillColor=#70001A;fontColor=#ffffff;strokeColor=#6F0000;" parent="1" vertex="1">
                    <mxGeometry x="-340" y="544.8" width="190" height="60" as="geometry"/>
                </mxCell>
                <mxCell id="48" value="Special Information" style="rounded=1;whiteSpace=wrap;html=1;fontFamily=Consolas;fillColor=#c056f5;fontColor=#ffffff;strokeColor=#6F0000;fontSize=22;" parent="1" vertex="1">
                    <mxGeometry x="-35" y="870" width="270" height="60" as="geometry"/>
                </mxCell>
                <mxCell id="55" value="" style="endArrow=none;dashed=1;html=1;fontFamily=Consolas;fontSize=32;fontColor=#195EFF;entryX=0.5;entryY=1;entryDx=0;entryDy=0;" parent="1" target="59" edge="1">
                    <mxGeometry width="50" height="50" relative="1" as="geometry">
                        <mxPoint x="1076" y="890" as="sourcePoint"/>
                        <mxPoint x="1106" y="80" as="targetPoint"/>
                    </mxGeometry>
                </mxCell>
                <mxCell id="56" value="" style="points=[];aspect=fixed;html=1;align=center;shadow=0;dashed=0;image;image=img/lib/allied_telesis/computer_and_terminals/Personal_Computer.svg;" parent="1" vertex="1">
                    <mxGeometry x="1590" y="10" width="45.6" height="61.800000000000004" as="geometry"/>
                </mxCell>
                <mxCell id="57" value="" style="endArrow=none;dashed=1;html=1;fontFamily=Consolas;fontSize=32;fontColor=#195EFF;entryX=0.497;entryY=1.003;entryDx=0;entryDy=0;entryPerimeter=0;" parent="1" target="56" edge="1">
                    <mxGeometry width="50" height="50" relative="1" as="geometry">
                        <mxPoint x="1613" y="891.8" as="sourcePoint"/>
                        <mxPoint x="1491.8" y="101.8" as="targetPoint"/>
                    </mxGeometry>
                </mxCell>
                <mxCell id="59" value="" style="image;html=1;image=img/lib/clip_art/computers/Network_128x128.png" parent="1" vertex="1">
                    <mxGeometry x="1020" y="10" width="110" height="60" as="geometry"/>
                </mxCell>
                <mxCell id="63" value="" style="endArrow=classic;html=1;fontFamily=Consolas;fontSize=32;fontColor=#195EFF;strokeWidth=4;" parent="1" edge="1">
                    <mxGeometry width="50" height="50" relative="1" as="geometry">
                        <mxPoint x="1080" y="120" as="sourcePoint"/>
                        <mxPoint x="1610" y="290" as="targetPoint"/>
                    </mxGeometry>
                </mxCell>
                <mxCell id="60" value="&lt;font style=&quot;font-size: 18px;&quot;&gt;Ether&lt;/font&gt;" style="rounded=1;whiteSpace=wrap;html=1;fontFamily=Consolas;fillColor=#a20025;fontColor=#ffffff;strokeColor=#6F0000;horizontal=0;" parent="1" vertex="1">
                    <mxGeometry x="1191" y="177" width="30" height="60" as="geometry"/>
                </mxCell>
                <mxCell id="64" value="" style="endArrow=classic;html=1;fontFamily=Consolas;fontSize=32;fontColor=#195EFF;strokeWidth=4;" parent="1" edge="1">
                    <mxGeometry width="50" height="50" relative="1" as="geometry">
                        <mxPoint x="1610" y="440" as="sourcePoint"/>
                        <mxPoint x="1080" y="600" as="targetPoint"/>
                    </mxGeometry>
                </mxCell>
                <mxCell id="65" value="&lt;font style=&quot;&quot;&gt;&lt;span style=&quot;font-size: 18px;&quot;&gt;IP&lt;br&gt;&lt;/span&gt;&lt;/font&gt;&lt;font style=&quot;font-size: 11px;&quot;&gt;dst=here&lt;/font&gt;" style="rounded=1;whiteSpace=wrap;html=1;fontFamily=Consolas;fillColor=#488011;fontColor=#ffffff;strokeColor=#2D7600;" parent="1" vertex="1">
                    <mxGeometry x="1205" y="490" width="170" height="60" as="geometry"/>
                </mxCell>
                <mxCell id="67" value="&lt;font style=&quot;font-size: 18px;&quot;&gt;Ether&lt;/font&gt;" style="rounded=1;whiteSpace=wrap;html=1;fontFamily=Consolas;fillColor=#70001A;fontColor=#ffffff;strokeColor=#6F0000;horizontal=0;" parent="1" vertex="1">
                    <mxGeometry x="1180" y="490" width="25" height="60" as="geometry"/>
                </mxCell>
                <mxCell id="68" value="Special Information" style="shape=datastore;whiteSpace=wrap;html=1;strokeWidth=2;fontFamily=Consolas;fontSize=32;gradientDirection=radial;fillColor=#C056F5;" parent="1" vertex="1">
                    <mxGeometry x="860" y="790" width="210" height="180" as="geometry"/>
                </mxCell>
                <mxCell id="69" value="" style="endArrow=classic;html=1;fontFamily=Consolas;fontSize=32;fontColor=#195EFF;strokeWidth=4;startArrow=none;" parent="1" source="104" target="68" edge="1">
                    <mxGeometry width="50" height="50" relative="1" as="geometry">
                        <mxPoint x="1080" y="710" as="sourcePoint"/>
                        <mxPoint x="1090" y="610" as="targetPoint"/>
                    </mxGeometry>
                </mxCell>
                <mxCell id="73" value="" style="endArrow=none;html=1;strokeWidth=4;fontFamily=Consolas;fontSize=32;fontColor=#195EFF;" parent="1" edge="1">
                    <mxGeometry width="50" height="50" relative="1" as="geometry">
                        <mxPoint x="850" y="1080" as="sourcePoint"/>
                        <mxPoint x="850" y="20" as="targetPoint"/>
                    </mxGeometry>
                </mxCell>
                <mxCell id="80" style="edgeStyle=none;html=1;" edge="1" parent="1" source="77" target="79">
                    <mxGeometry relative="1" as="geometry"/>
                </mxCell>
                <mxCell id="77" value="" style="shape=image;verticalLabelPosition=bottom;labelBackgroundColor=default;verticalAlign=top;aspect=fixed;imageAspect=0;image=data:image/png,iVBORw0KGgoAAAANSUhEUgAAAOwAAAB7CAYAAAB3sGzvAAAOIElEQVR4nO3de3BU533G8e/ZlQTmjsFhQayECamJaYUxYCALQY6tKWCgtQa3FrWpxyjp2HRiT+1qOmBDIHH+0JAZkhk5TSvRDMaC1BRm4kZ2o6EDFmuJixAo9QC2bJBWguViYUCAQIjtH3tWOivt6rqS9sDzmWFmz3tu7wo9+r3vOXsxwBlARGzBMdAdEJGuU2BFbESBFbGRBOuCq/yNgeqHiETgn/mLsOWEdhsEGvqtMyISncsY1q5NQ2IRG1FgRWxEgRWJa+Evk1BgRWxEgRWxkV4HdnK9i2nnU8La/ixxEBuGPMBfD53Q28OLiEW72zpd3rHZSfrBx7h0ogmAzEdS+WTeMUYkXmVv4mmSmy+CcxirEsaz/c6QmHVY5P4TAAyghxV28N0ksvY/2RJWgK9OXeF7n/4F/+QcTnLgKoYBxt0GtiV8QdnwJgbFpOMi97duV1gDg+mfPMKfzlwEw7BcxApQ83kDf3RMJ/HJZn7oOAI0AwZPNJ3ip0OmkXPDiGXfxa5mvdu17Y682rf96K5Z78J7z8F3H4q8/sRFePGDPu13twO7wP8oF5pvM3zSIO76EjCAu6HQBgLUfnGDP054jDmPnmK6cQMwwDB403GBtxnHrQ6PfgVefh8qzcW0+bA1DaiGWeWwJxPc3e1xrFXDrDNwZKH5+A+Wda446aMNdPZL3dVQ96f3niMx+0Oa8pe1D+2Ji8F17z3Xp12wDIm79rbY6ovXGJ4WoGH2ZRxDHZz9y1pGDB2Mw+nEkZCAw+nkWmMTOIeAIwmcSeBIwqCRdcOGRj+wrxJmvQ+rXw3+Zx55FTYC3t49wb7ngj1mf98ANlR2uofY1Hcfoil/GYnZHwaraUgorJGCHGPdnsM6Jt9i3KGJuPalMPwHt0k5kcLNprs4nU6cTifNo5o5++3jjHPcaQkrjkQCSRMouRttJnsFNhyAX74KHkuzOy18Od5lzYTKKvANdEekz7QNbb+FNVhQuz0kPj30PM3fD3Cj6Q5T/m8yxoVBGGbsbw+7xa2Mz/mfcTdwBQwgCQyDgHMUyxtGU9xYH/mgvmqonNZ5OGsq4dkDwcdv/B1kjTT3t7RDePCjrmsz/A61h20/zRz6ilhYQwv9UllDenRb58LQb/jb0kV8eeEKOCFAgOahTTQ8eZKPx19jItfAMMPqGMH4r52cv9vJu4DSRndyVj8UTAkOPb374bVjkGXOI5890CZwu825ZAfrao7BlGdga6rlHNXwbFVwiOsmeJ4dV1r/MHRmRzmkTenfOaxdL+BIj3Q7sAkBJ39fvpwTF+pxOJ0ANA2+zaX0P/FR8g0mGQ1AEgAB52gyrw7mi281U3lnEAu//obmQJS5cuXlTs7sgo1pwYeeSUC5OfS8AliqszsNMg9ATSfrUkbD7j/Aw9ZKfQXww7OWEGROAjoKrHX7aXAkrZPnEWMKYv+zDoOh3+av0IPALm2cxef+q8Gwmtl7KHkQ/zLhNt923CDAIAzD4LNmBx/ceoj/GNXIvzYOIS3hDj8YlERxY4TrxO5USDsA3oX9N2d1pwXDtWM3zPIHq3AKdH8YrCvD95UIc9bQ8Dg+Lzo5HDgcTpzO4BVhh9NJYkICBG5jOBIxnEngTARHEv/4QAOjjAYwEs1/zihHHQmrp8Fr74ZfFfZVdn6V2D0S+Kx1O18l7DarakfrQrIy4Q0X1Fxp3X7Hle7+WOR+EO0CU7Srx32g2xV2z6Ay5rvmM/jiSALm8PbG5bucbP5zliVUYwQawYBpSQ7gFhgO/nnIJby3E/nfxpvRD+xZCHtGhw9H0+bD1s56lAp75lv2MyteZ+u8++G1z8z2aXBkJDDS3P59CH0yR+YzsNY6z5WYiMf7rJ158YPgfdZIVdQMbV+/cMJo/VziAK7yN7v0ETFJzYks/3Q5127eMfcMMOpbBt9bWMWPR5zFCIQHM0Aif1Xv4MMbqlwiXeUyhuGfudnSYvTstcS3nU18NucIjWMbMJwOHE4nX19vYu35M/zs+ggCxgMt2waM4fzNN4MVVpEY6PG7dU4kVXNmhp/H6x+l/vptzrp83Ei6zvr669TcGUcyDWAMY8u1y1y5eyeWfRa5b/U4sAA3jVt4x1TAmPD2/KvnzUed3aoRke7QJ06I2IgCK2IjCqyIjSiwIjaiwIrYiAIrYiMKrIiNtLsPm7zhyED0Q0TaaN6U3q5NFVbERhRYERtRYEVsRIEVsREFVsRGFFgRG1FgRWxEgRWxEQVWxEYUWBEbUWBFbKSfA5tBbv5W1vT4U/J7u39f6KhP8dhfsbNefQjbkjXFrCMXT15xeNv4nax+q4CTZtvUzK0UPO5l9Vs1HRwtg9z8LKo3vkxeLL6uce4mvNnzWha9+bmQnRP+TSD+8H7aWrvnm0FO2QD2R/pErypsUXkpjE9haktLBukzfPjw8JSlqkwe78Z3dH8nwSgmJztGYQUoW48nOxcvPgo3hn55g4892cF/q496KFiTEaMTDjxvvvnc8kvxZG9iyUB3SGKuVxWWump8Lg9PuQs46QPcKaRU7GAbOaQnY367XDDEJb+vAh4O7jd7E94NwWrgK3qF53dX0b7CZpCbb6mIFbl48uhg/+47ediL7x+Cf3DC/5i0OTdtK1bb9T6qo+4bWmc+v3wvC7Kfx00p72Svp6jN9mHnaVM1gz+D4ijt68kJLddV48PDw2705dL3mN7NYX37KfG7SU0OLk6d7YFzpykqL8Uz06xc7hRSqOV0yy+Om5XjS1oqgXvJqgiVYAprfpaDpyLXrIavUEiokndl/65Zsvx53OdqIlT+YnKyWyuxZ+NOUloqVrBvKUWvmOtzLd/X1dE6s+9L4SfZGXiy11PUdnvredyr2Zk90TIiMI8Vrd0qORV32M9c7hW9q7BUsfeoj4KZGVBWzOTxmJW0Gt9SM2CzPbgrdlDUso+Pwt+bc96yErzZWe0rgXshC1w+Cn9T3HKevLxgFe7S/lG5WbmhmJWhxYrw+Xe49pXyYTfAQha4StkWqaq7O1hnHqPwN5Y5c9vtffsp8f+a9LlQVBfsb2rLSKWYnDzAvTpye4hZfb35GZafudwrehlYOHm2Fh5PYSoZpM+oZV8ewH5KWMtT7gJOj3fjO3e6ewftswrho7BLF7WCYU0pegWPZbje2rcoOloXdft5rMsvZp2l2QvgK+D5/FS82cV4s832/AxyyqK1E1Z9Y3YtQOJKrwMbqnJPzYWUihLzr3oVp8+5SU/OILVl/toNddX4GMCveJy7AA+lvBOpUnbUtx71OzSXjaBsPZ6w+ewmlpStpyhaO4CGwve0GNyHLWZfhZsFS4Pz15Ci8lI8S7NI8XvZ291fIN9+SvzzWNdyBXcKa9astlyN7mN11fiYaA6BMQMc6lsNNcwjfW4310VSto1C/zxWZU5paZqauSl433buJnZa2qmrxuev5qto7RCsytHCL/eE3ldY4KtzPtwzoPCwpSLVVeNzzcNdEemiTmeqyHsrl9T8HLz55rXPilzyOt4pnOVKqmdDMan5uV3f11fAT4o8FITmuxWllgs7xeTkL2gdknZ5XSSh5/lrvKErZ/6drN4N+Eqosbabw/mTvozI7RAcEm/wUBKre9kSd9p9obNz/b6B7ZGIAMFPTYzJFzqLyMBQYEVsRIEVsREFVsRGFFgRG1FgRWwkJvdhQ344W2/oEonk3w/H5uUsMQ0sQNqCm7E+pIitVZY8ELNj9dmQ+L13RvfVoUXuW5rDitiIAitiIwqsiI0osCI2osCK2IgCK2IjCqyIjSiwIjaiwIrYiAIrYiMKrIiNKLAiNqLAitiIAitiIwqsiI30WWBfXHe5rw4tct+K+SdOxPLd9SISLqaBjdXn1ohIZJrDitiIAitiIwqsiI0osCI2osCK2EhMrxI/nfV0LA8nck/Yu/l3BJLHxORYMb8P23Dxm1gfUsS2ao99GdPjaUgsYiMKrIiNKLD3hNnkvP42K8cOdD+kr8V8Diu9MZuc11/iCWtT1W9Z8d+H+/H8i6jd/lMKL1kf99PppVMKbNxIZuWql+CjNaw4FWqbTc4qF5OAM/3Sh8PkbumvPw7SEwpsvBj7OHMePM5/nbI2HiZ3W+hx24oXoQJ+50fsemE6AHUHf85rpXWt2x08T+Ycy7r6Z9i1OMq227fCkmClf+KFPDI5zq+2/Buf9PGPQDqnOWy8uHSUg/XT+fGqZUzq0QFcZI6pYMWWNaz46DjJc162zGkt67Z/DHPWsus71uVn+H7Yseoo3PZbDuFn9/Y1rFBY44YqbNyoo3Dbz2HVWja/vshs87O7y3NIP7vLzOHsqQoOLX6JiWOAS23WXfJTh5+DYcuPMXFsaFuJZwpsXKmjcNsaCs2lSfPeZvMLP6K22xXuLLX1MDH2HZQBpiFxHDtT+jGHGBesft0ygYkP9kWPZKApsPFi7DJ+uXR2eNsjM3ii/hifXoJg1XQFh7nApHmLwm//tN2P45SdirZBV7WeT+KDhsTx4tJRDj64ll2vv2RpPM6vtnxo3tKpo/DgcXYtzmPXYqg7+DGHeMyyrYvMF/LIBEJz395dKDrMfx5cxObFeexarKvE8cIAZyD4MICr/E2c6/f1+GBPZz2tF/+LWNQe+5K641U9erdO86Z0/DM3W1oMDYlF7CTmQ+JYv51IRFrFNLB7N/8ulocTkTZiGthYvateRCLTHFbERhRYERtRYEVsRIEVsREFVsQWDCAssMYAdUREukoVVsRGFFgRG1FgReJe63RVgRWxkXYvTWzelD4Q/RCRLrC8H7atKM0i0o/C79508OL/0IYKrkj/i3ybtQvv1mm7owIs0jc6fy3E/wOwfhsnDBWHrgAAAABJRU5ErkJggg==;" vertex="1" parent="1">
                    <mxGeometry x="490" y="420" width="236" height="123" as="geometry"/>
                </mxCell>
                <mxCell id="82" style="edgeStyle=none;html=1;" edge="1" parent="1" source="79" target="81">
                    <mxGeometry relative="1" as="geometry"/>
                </mxCell>
                <mxCell id="79" value="" style="shape=image;verticalLabelPosition=bottom;labelBackgroundColor=default;verticalAlign=top;aspect=fixed;imageAspect=0;image=data:image/png,iVBORw0KGgoAAAANSUhEUgAAAN0AAAB9CAYAAAAm2Gb0AAAP2klEQVR4nO3dfVAUZ57A8W/PABrfjWYdxQF12Ysb71CjRtwJK9kNdUrUOylzB1zCpYTdrYSrNXXmqCtNdMMm+YNyq8xWkezdgbtlDLobj1TlheSW8sqETMBXonspMSHRYcSML8GoiC+Ic390D/SMM8MMzDwI/j5VVNE93c/LdP/6efp5pmc0sHoRQihjGewCCHG3kaATQjEJOiEUS/D9Yzu0fjDLIcSw5Fnwm9vWJfht4O1QVhghhjubNiboeuleCqGYBJ0QiknQCRFXt0+DS9AJoZgEnRCKDSjoZrXbmHMmxW/dXyWOYPOoe/j70dMGVDAhhquEvjcJslO3lax98zh/rAuA3PtT+XjJZ4xLvMSexBMkd58D6xgKE6ay4+aomBZYiKHHC2g9S1G3dCNvJZH/0SM9AQfw9fGL/OjTv+FfrWNJ9l5C00C71cH2hC9pHNvFiJgUXIjhIaqWTkNj7sf385eT50DTTAMzXlq/6ODPlrkkPtLNzywHgW5A46Gu4/x61BxKO7XQCYuhZeFrkW138Jn4liNaC1+DNx6HH94X/PVj5+DJt+Je7qiCLtPzAGe7bzB2xghuuRPQgFu+wPN6OfVlJ3+eNo/FDxxnrtYJaKBpPGc5ywtM4XrQVF2w8H3/Va8+A47oKyMU6uvEjDQwVXrjcRKL36WrcuXtgXfsnP7aG4/HvRhG9zKyR+pc5y4zNt1Lx6ILWEZbOP23pxg3eiQWqxVLQgIWq5XL17rAOgosSWBNAksSGtfYOGZ0mJRt8PYz+oF8dQ6s+2jgNYuYCxbWgFthlmJw/PA+uipXklj8rt6q+fgCLlgwxkFU93SWWdeZsn86tr0pjP3JDVKOpXC16xZWqxWr1Ur3hG5Of/8IUyw3ewIOSyLepGnU34rwzs4xA/hWgkDER2DgKQu43oYtqu7lidFn6P6xl86um6T93yy0syPQjLC9MeY617O/4H+mdGLzakASaBpe6wRWdUyk7lp7ZJk4T0J6GtiNZfdRWP2JsTAHDi5Fb50OwatpsM54bf0/Qf74MPsAr7wGNcbq3MdgA71d29WvGesmwNo34aixnXR1hx9z4IGyFs4n6imDs6O/4x8blvHV2YtgBS9eukd30fFIMx9Ovcx0LoNmBJxlHFO/tXLmVl9PL3j0kx70E39bqrHeBatb9K6nHXB+BDsvQr6xT1Wa3iV1H4XVe+DhXLCH2mc8bHhGDzRf0D6ZCwcf0/9/O7d3+zRzGeJsqA5KiH6LKugSvFb++dAqjp1tx2K1AtA18gbns/7CB8mdzNA6gCQAvNaJ5F4ayZff6+bozREs/fY7ur2h7h1t+knPUVh9EjYYJ7z7In4BCZA7o3efF9P1f+3pkPsJtAKE2me8HlDrPu/dP5iUiVDzPsw0tZzxJMGknrlLCUrv5yDKoFtxbSFfeC7pAWfEz33JI/j3aTf4vqUTLyPQNI3Puy28df0+fj/hGr+7Nor0hJv8ZEQSddeCj1/2sKfD+prelgnw6x72cAUsX4QWoGezIPu4j8I6jJP8IqzdE7oMB9NhZw0s9Ej3crgJcg/n62remQMpFgsWixWrVR+ptFitJCYkgPcGmiURzZoE1kSwJPEv93QwQesALdH4s0aWSf4C+M0efSDFPh74XA/C23jgE2O92wVH5+jBEWqf1guQPtG0fV/lyIX1NmgNlrcYkkINmoQa1YyTqFq6t0c08rDtYUaeG4/X6Cp2XrhFc/dfszLBhea9BhrMSbIA10Gz8G+jzuO8kcj/XrsaYS6psP4QbD4K29Lh7Ydh9Zvge+rdNwCCDU7s0Vsj0Fsk3/5B95kHVW/Cwk8gfQ6km/LLfb93IGXpSVMXdA4cVNDFHIruxHm4vjz5lj4PF6w1MwJPxeS4pn/vpRfboeci+rqGpO5EVn26istXbwL6QMqE72n8aGkLvxx3Gs3rH1xeEvm7dgvvdsayxXD5D34IcQeyaWPwLNhiWqN/Kivqz17esHbx+eKDXJvcgWa1YLFa+fZKFxvOnOSlK+Pwavf0bOvVxvIP342MccAJMbT16ymDY0kuTs738GD7A7RfucFpm5vOpCtsar9C680pJNMB2hi2Xr7AxVs3Y11mIYa0fgUdwFXtOs5JTTDJf33lpTPGfxcGUKy+pMJBRfNoQsSYPDkuhGISdEIoJkEnhGISdEIoJkEnhGISdEIoJkEnhGJ+83TJmw8OVjmEGHa6y7KCrpeWTgjFJOiEUEyCTgjFJOiEUEyCTgjFJOiEUEyCTgjFJOiEUEyCTgjFJOiEUEyCTgjFJOiESTbllXU4jb/yjFDbbKMkkq8+tBexy0hrV27aAMoUYX7RyijrqauzsoycOGQRTL+/mEh/M/JxvbiWCne4dSJ+Iny/M8pwFi/pWXRWZlPaGGrjBl4u3kTtgMuWRskv8mitzCYvZF7R6s/5lUbJS69T0PPTFW6qffs3bsLR6Es3M1aF7JO0dHcJZ2U2juJsHJUNOIpVXNVnkmpz42qLe0bh2ZeS+U25XvfibIpqoeAXRcwexCINoKWLgL2IXZvzjC9h9l1h9CtP5uGnyatpASCnpI7Cb3qXZ+duo2rqThwVdQEJGle62lMU5OhXbnft0+SdLuy5krtrfelkU15Z6vfbH71X+BDp1HBb2cgow7nCRdHzVTQHK0ulk8ziPOw9LYR/vn3n2WJKL9R+weqRRslL+nrH5joKfPkHtGo0leOo2ESpb7nNhRsHM+1E8cObgWVwm37CJVi5g5Wtnqy+jkdPCxasRQtR376K7q4ir6J3sfmAE3dOKrMg4HiqE8egy6Z8s6l7kVGGc3MZJ4o3seewm4KpM9F/aiebrPluYCmzaaEZmDXVjvNQYMD52CmYuhNH8SYjqF/H2VRuWi4kp2YTtdRRWmxKw17Ers1l5DT6DlRgOvp+ew67KXhwKbNr9LLkLFiC+/D2EAfITsEKKCrONl7XT4yU2qdx1LSEzzOjDGfxBkoO+C5EofYLXY+K58tJNZ+c9iJ2FU+n+sXs3pO3JKDIyanYOcWJqLpnprIZARH0tXBlA2rDHo++tARJM7Dr6C9YNzpnVR7UPh2D7nP/DTDo7BRsrqPAb51xFczIxEEDL/sq3ViPs7iUrAyoPX0KHkxhNtCckYmjaSdF32TyUzs0u/UgdL0TKk831e8YB8/dSitu6v2WzVfx26/Qva8FpqPvV1uzE2dOPj+1V/WUpf6dFoJzU/0fphbQvpRMWwPbfa2X+yPqPa/rdW4MyNN4P1KTAfraL1w9Atn1NN0AdZSarvK+eztnZXbkJ11gncK9dlu5A0VTj0i0UPF8NhV9b6j3nnL0zKpDHk81Bhh0pptSwP8qCHhcfN2zcAKXB1LBOOEymQXMWrAE56FNNJPJrxalUUEKKR4n2wY8EKMf4OBX6HDq2NtUSuGiNCqSM3FEU5bkVOwsYWNlHRtNq51BNza9H2H3i6Ie7iryKlNxFtfhLDbS8F3tb2sFo6lTuNcirW9/j0dsNNesxVGDX49rsFq7+N7T2cx955mk9nQD9BM7KyMb5jewtwKgntbKQnJOAyG7c1HwtbTBrtB9qD3UwMYVSymZGq5rGUqko3/m9yPMftHWo2dEDqNlM3fhoulWGtpcuAn3FfYR1ncAxyO06LuX/bunja34jV421uNkCYW++RnjTd9rvAlff+MmZUU+jqZ644DVsbdpCYUrptN6OgYHps2Fm+n6m9uTfxRlt+VRMD9Etyrkftup9pjqDMzOLQs+x2R+P8Lt12c9jO4kQEaZ/3xYmwu3r7fhriKvP1d3dyutLCHLN2dnzj+a+oatxwlcnt56zM7ND3OsTPU1upe+kcnAv1JjLME83zh7kQO7x8meQZzSimNLV0fpiyn6QEcO+LqivoPefMAJOXk43+u9ua491MDGYtgei3kddxW/qnVQ5bvnbGoI0e0JXva9TaU4qI/yJPXd7PvqDHh2UVTje918D2x+P8LtF64edWyrzaequA5nsT5C2GpOw8ijGYyBCwf1Uc+h1lFamdnbZfXLv6/6moQ9Hi1UvNfQk4e7dhfOoGEXWN8ILiJtLlI293a39ZY5cCRaLb8fhbRu2juIRbmT6N2W1PfCTSJHayh8cECfJN47iPc7gyM+9e4uywr6o5DxvacbqnyjcjELuKGkd2Ak/CdXhgG/Oc0GVDU5EnRB5KzKw95Ufpdd7YHAOcHhzjzopJAEXRC1FVHMY0XsLjuhRUjy2UshFJOgE0IxCTohFIvZPd3PFql6BFAI9f7rQOzu8mM6kJKeeTWWyQlxRzhaf09M04tL9/KNlyfGI1khhgW5pxNCMQk6IRSToBNCMQk6IRSToBNCMQk6IRSToBNCMQk6IRSToBNCMQk6IRSToBNCMQk6IRSToBNCMQk6IRSToBNCsbgE3ZMbL8QjWSGGhZg+OR7rJ2yFGI5iFnSx/A4JIYYzuacTQjEJOiEUk6ATQjEJOiEUk6ATQrGYjV4+mv9orJIS4o6yZ8sf8SZPill6MZ2n6zj3XSyTE2LQnfrsq5inKd1LIRSToBNCMQm6IWERpc++QMHkwS6HiAX5+WOlFlH67FM8ZF7V8gfWvHdAYf7LOLXj11SfN/+vKHsBSNAplExB4VPwQQlrjvvWLaK00MYM4KSSMhygfKuqABehSNCpMvlBFt97hP8+bl55gPLtvv8DW54gLdEPfs7uJ+YC0LbvFdY1tPVut+8MuYtNr7U/xu7lIbbdsQ1y9Bb3oScqyOUIv936n3wc57dA6OSeTpXzh9nXPpdfFq5kRr8SsJE7qYk1W0tY88ERkhevNd3jmV7b8SEs3sDuH5iXH+PHfmm1Ub39D+zHQ82OEtZIwCklLZ0ybVRvfwUKN7Dl2WXGOg81Ed9TeahpNLqGx5vYv/wppk8Czge8dt5DGx72+S3PY/pk37ZisEnQKdVG9fYSqo2lGUteYMsTP+dU1C3NaU61w/TYF1AoIN3LQXSy4UP2M0VvhaIyjen3xqNEQgUJOlUmr+TVFYv8190/n4faP+PT86C3Xja9ywjMWLLMf2ohcD+O0Hg81AaR6s1PqCPdS1XOH2bfvRvY/exTppVH+O3Wd43pgjaq9x1h9/IKdi+Htn0fsp95pm1t5D5RQS7guxcc2ODHAf60bxlbllewe7mMXqqkgdULXmyHnsO6aW+/E3o0/1H5wLMYdk599hVtR1r69ZRBd1kWngVbTGs0QLqXQigX0+5lPB6DEGK4iVnQ7dnyx1glJcSwFrOgi+WTtUIMZ3JPJ4RiEnRCKCZBJ4RiEnRCKCZBJ4QSWs9/lsAVQoj4kpZOCMUk6IRQTIJOiLjzv32ToBNCMb+PgXWXZQ1WOYS4axjP0wUKskoI0Q+3zwyE+MCzb0MJPiH6J/Q0XB9PGQTuKEEoRGiRzXdH+WiPTKILMVAyeimEYv8PO9qPzHJ8Ic8AAAAASUVORK5CYII=;" vertex="1" parent="1">
                    <mxGeometry x="497.5" y="593.6" width="221" height="125" as="geometry"/>
                </mxCell>
                <mxCell id="84" style="edgeStyle=none;html=1;" edge="1" parent="1" source="81" target="83">
                    <mxGeometry relative="1" as="geometry"/>
                </mxCell>
                <mxCell id="81" value="" style="shape=image;verticalLabelPosition=bottom;labelBackgroundColor=default;verticalAlign=top;aspect=fixed;imageAspect=0;image=data:image/png,iVBORw0KGgoAAAANSUhEUgAAATIAAAB9CAYAAAAhv+/IAAAR00lEQVR4nO3dfXAUdZ7H8ffMkICAgk/LSBiCbvZk5S6ggMAGFtwzdRIf7kjpHbDCWWZ2tyRXi3V4qStEsmTVP1JQpVsV3btLuC1UYE8uVp0avU1xJYaRILAIexagUUiGcCOPIog8hbk/eibTM5mnTHomafi8qlKVfvr1t3/T/Z3f79edjgNcQUREbMzZ3wGIiPSVEpmI2J4SmYjY3qDYGe5dy/ojDhGRlAKT18Sd3yORAQSCZ7MajIhIb7kdwxMuU9dSRGxPiUxEbE+JTERsJP5jr0pkImJ7SmQiYnuWJLI7TrqZ8NXYqHl/ljeY6qHX8TfDRluxCxGRhOI+fpH2xl0u5myfxPF9lwAov7OQD2d8wg1537A57yAFXcfANZzFg27j9ctDLQlYRK51QcARNSfjFtmQK/ks2HJfdxID+PLAaX700V/wj67rKQh+g8MBjitnWTfoc1qvv8TgjAMXEUksoxaZAwcTP7yTPx06Bg6H6UZCkI7PzvIH50Ty7uviZ86dQBfg4N5LB/j10AlUnXMkLljkWjTllfTW27kku3H01pRX4LXH4Ie3xl++7xgsejMncWeUyGYF7uJo10WuHzeYK/5BOIAr4WQWDHL483P8YfQkpt11gImOc4ADHA6ecR7lOUZxIW6p7TDlXdO0G94qB08mESYSuw/g5SVQYuU+rBSKt/xBWF7Yc/GGRliDUU/shXltqevMn+Z6klupLvZ0k10uvfYYed63uVT/cM9ktu+Ysey1x3ISSkzXMr1Xk7UfO8P1xUHOTj2Fc5iTI391mBuGDcHpcuEcNAiny8WZ85fANRSc+eDKB2c+Ds7z7PBhSUp2w1tLjA91GVC9N4NDaocpjeBPYx8vT4ClWzLYRy65oW1XnONphzWByKSnGHamkZzSXU8klR/eyqX6h8nzvm20vsLCSSxegsuSjMbInHdcYNTHY3B/MJbrf3KRsfvG8t2lK7hcLlwuF10juzjy/T2Mcl7uTmI48wjmj6blSpojZQsmw962JAnJAiXjgBPZ3YcVioCtp6Pn+Q5B+YR+CUekW2wyy1kSi250ZdS1PDjsK7p+HOTcpcsU/e8dOI4OxhFKiReHX+BC6Wf896hzuIMOIB8cDoKukTxy9kaaz5/MLG7/Xpi3NTLd3SVshym7oBxoNLVQ5r2SuEsW5jsExUWR1smLr0Bj6PfubUPlL7sZ1nxqLFv2U1gwomdcy2bCGlO3LSrmCbBzdmbHvmgyzPsEFoS3Pw0NJ2DVZGg8EZoXivOtcvAkiznOei8XwdJQnC8vgY7GSGsv7nYJ9pdWOXLVMSczyGlLLCzjxy+ODvuav9v2AF8cPQ0uCBKka9glzt63n/dvO8MYzoAjlMScN3DbCRdfXenFWzU27DIlmXYjIYSTl38vzGs0XVQBuP2nsDPeBRcrYCQ5MJLVWlOiW74ElhMpY1FhpPyDk41E5NsCS8NJJSauDY2m/bSHxqKWGGX4tsCG0xlezIVQ/i74ZoeOvx0oStE9TBRznPUaioyutm8LLH3FSDo7R6TYLlvl9JFdB86lTzJKZIOCLv5+1yPsO3oSp8sFwKUhFzk+50+8V3COcY6zQD4AQdeNlH8zhM+/18Xey4OZfeJruoKJxuJMSYYJsLPY+NV/2pgOD8p7iqF8K3QQupjdMDPdBOE2DY4fim6x+bbA0k8j65m3WRRar2QcEB6zOg3FMyNxLZgMa3aZYjYfD1A+DjDF2ZsW26KZxphhSTG8thUqlgDtyY8zXsw9kp8bVhWb1jsRqcuk22WrnD5Sgso9c3cScj4+BhkmsofOT+GzwDdGEgvlpFsLBvPPoy/yfec5ggzG4XDwaZeTNy/cyr+PPM9vzw+leNBlfjI4n+bz8e9bZudOZQKeYljWGGkl+ffCUkIXwml4crMFO0mRnDzFkWSdMt5CYDP4gLaZoZajSD+LMyYW7mYO/MF+pxOn04XLZdyhdLpc5A0aBMGLOJx5OFz54MoDZz7/cN1ZRjrOgiMv9OPq/Q49I4BPjYsYjKTTOKHvj00smAxrNhsthY5TUHxjqPx2SOeGqWcE7N0aiWvDrp4xbzgdb8sMjICKm40xqNIk435ZMxKKA0YrGIzxRbm2JRrYT3Q3M4syapG9NbiVme6ZDDk2gmCom3ju1BX2d/05Dw9qxxE8Dw6YkO8ELoDDyT8NPY7vYh7/c/67DPZYCG/NNHXTwt3DBOuWv5veYD+FsGyX0WVbOwka3oApW6F4AqTVUCoMPcIRimvZTKAtJuY3jGe9II14UiiZZMTVL4PmI6DCdKy6Y2qtgficWCqL3jSeE4vX6gols1w9EOuI/r+WQdy7nknrVdf5XXk88tEjnPnucmjLICO/5+BHs9v45Q1HcASjE1aQPP76pJO3z1nVQhmA/Hth3qnM706KSEJux3ACk1eb5kT+Sijjv7W86LrEp9N2cv6WszhcTpwuFye+vcTyrw7x/Lc3EHRc171u0HE9f/v1kKs7iYExCB/unopIzvTp7Rf78ts5dHeAe07exclvL3LE7edc/resPPktHZdHUcBZcAznpTOnOH3lslUxDyCn4ck3TONpE9IfvBcRy2TctRQRyaWsdC1FRAYKJTIRsT0lMhGxPSUyEbE9JTIRsT0lMhGxPSUyEbG9uA/EFlTvzHUcIiJJddXMSbhMLTIRsT0lMhGxPSUyEbE9JTIRsT0lMhGxPSUyEbE9JTIRsT0lMhGxPSUyEbE9JTIRsT0lMhGxvRwkslJq69dSmYv/Hn5NK6W2vhlf6Kd2eqJ10vwsPBVsDJW1sbyoDzHps78qTK/pPrd89TWU9Xc8MaxLZKYTP/nFZEcD4YJMJ4ZtvOAtpcRbSlVrX/ZVROUv5tNRb5Q1v7Et9SYpZViHUedVsgvIis8oQRkJY4j+8vAl2v/0msTL+sziczPRsbaupMRbSom3Fp9Fu7JSn/4dXLfpNfi8M/DVlzK/+wIqpfb5Csa3dliyi/7VTJW3ub+DyKHbKXT7ae/s7zgiCXV+K8Z59nwFX65oYL/FeyqrbObZuwH8tKcbg2csY3fXUlJnnBvjy9fS8IsKNpvj81Sw0TsD8FsccZiV52bu6ttqFiSyIiofmoG/6amYVkAzVSsASo3JqTX4qmcA4G96KvIt76lgY/V8jC8UP+tXPUld+DNPtiyUPLt1n1Cl1NZXURKa7atP1DoppbZ+Ae1Nh1lYZorryOLuciNxhtZd9SR1/gTbxW21pFg34fGFtqv3Mcs7Hw978AUmUgKUVDezkG284F1JU7zDihtDpD6iL9R4dVVE5fNVMftqYU5UGeZ6NddNvGmAeGWmEb9nNrPcflrCCbWzHb+7kDsg5sJKUH6y8ydGU10pTaHY047B38D8usiq+48chjJzfKXUVpfQsqqWwuqYcpPKxbkZR9r1bd7GqOOOhNdZbvQ9kYUPfkeyyvKw8LYNlHhXhhLQYsoaVxonTnXMN0B1DQe9KZZ5KtjoHcP6VaWRi6cSwif02KanKGlsC1VyDWWtiS4aU1yeCjZWv4pvd61pOhxnqu0SrRfv2JdTuSN00iU89tB2D0GFtzRyUfRIEKnE1EfUhZq4rupW1FIYs68m87d+ynqN1RanzCIqn3+Vhe74W/jqS6nqBDjMwajjHcPtHmIaOPHKT1W/vZFODDB+9BgI+PiS8PFVQX2p8Vn3ep9Wn5tW1vfAY03XssfBx/Kz/r9CF0JrCz7vAqNyCmZRwjZeCGfy1hZ83irmTIcmkizrBPBQWECogpupqgM8Fcxyb2Nd+BvIv4WWwKvGNnG/LUxx+TvowE9L1HRJgg8xdrtE68U79ioj7mTH3hra7l/62KT3zI6uj2TLUtZVz5Zd307wNupWlFKXbJXphUQN/YTqOi3TU9VvmgrSjMFTwa/KPPjqjc+srPJVFv5fLSUZt1KsPjezVN/+BuZ7G9I7pCyyKJH1IWsH2kPfYAAHaQ9AYapl/gbm1xfi8zbj8xpLffWlVFGIhxk8W9/Ms6ZdDJzByTSPzyqxF2GPZenWlZHE4rfssqizHb+5RjxjGQsxY1hJWFG/acVgtP7oHl4p4vbbAHcVvvqq7rVKqpsp7OcuWFJ9re9+1PdE5t9CS2A+s6YWUefP4O5WVB/8dgrdaS5rXRn5tpteg89bQ1k90Kvxo1zrxfFZIfbE7CHNugq3biy5exmWblcn9ksyVevfxLL6TRZDJMlHxqJiWz+ZDAtYLQf13Y8sePyijbp3tuEpezXmcYvQXctkm7a24GMGi8PPKYUumA9aUyybXhP9bFNnO/5AO1+2rmN9wLQNML68ZuA8x5Tu8SUU6k6ny99BBzOYE/5cps+KdBR6U1ed7fjDJ3hsORykPRCJa3z5giSdEXP8xsVe4o3/U9VK6EvStE1BIZ6oVlaS8jOq3ziSxhAviaVnfPnaHD+PlY36pvtxjf5+1MqarmXrSko6K9hYHenqgZHl94fvWsbVTNWqscZAZhmE7yw1pVrW2kJHfXh+ZNl+YP+KWgrNywIbqWi05Cgz5GFhdTMLgbSPL65m1jYtoMHbjM+bbquzmar6WZEu+O5tpq5jeIA8jbryN/CrphIawscRW84727r34W/aiC9uKsskfiPG2vrwebWNF7yJxg17lt+b+o08fhG68xnYSMWKBvYniyGc0MvM52I6dwqL+Mt7PPibXhxgPYfe1PfA4gBXMDIZxL3rGVwrP+i/iK4quexSlFJbP4sPBmy3Wrp5KthYXUJLv3Y1M9V/51lXzRwCk1eb5ji6f7NosF8GhsjgfeLn56TfFRTi2b3BXkks6rnNbQy0po4S2VXjWvvrAxsz36iyiwEesxJZVim5iOSCXuMjIranRCYitqdEJiK2Z/kY2c+mDrRXronIQPNvO6x9eCMrg/3Fs77LRrEichXY23Kd5WVmtWv52gs3ZrN4ERFAY2QichVQIhMR21MiExHbUyITEdtTIhMR21MiExHbUyITEdtTIhMR21MiExHbUyITEdtTIhMR21MiExHbUyITEdtTIhMR21MiExHby2oiW/TsqWwWLyICZOkNsdl4A6SISCKWJzKr38UtIpKKxshExPaUyETE9pTIRMT2lMhExPaUyETE9iy/a3n/gvutLlJEriKbV/+eYMHNlpaZlefIzh77OhvFiojNHf7ki6yUq66liNieEpmI2J4SmVhsKlVPP8fCW/o7DrmWZGWMTK4GU6l6+gnuNc9q+x2PvrMjh/t/gMOv/5r1x82/52j3YitKZBJHAQsXPwHvVfLogfC8qVQtdjMOOJSTGHZQ+1KukqbYnRKZ9HTLPUy7aQ//ecA8cwe168K/x7aQ4rSYfvBzNj0+EYDO7S+ydFtnZL3tX1E+zbTs5INsmptg3dfXQpnRMrz38TrK2cNvXvpXPsxyFYi9aIxMejr+R7afnMgvFz/MuIwKcFN+824efamSR9/bQ8G0J01jZqZlr78P05az6Qfm6Qf5cVRZnaxf9zs+JkDj65U8qiQmcahFJnF0sn7di7B4OauffiA0L0Bj2mNUARpbQ93CA7v5eO4TjLkZOB6z7HiATgJsj5qexJhbwuuKpEeJTBLoZP26StaHpsbNeI7Vj/+cw71uER3h8EkYY32AIt3UtZS0HNr2Ph8zymgt9cpoxtyUjYhEIpTIpKdbHublh6ZGz7vzbu49+QkfHQejleU2uovAuBkPRD+mEbsde2g9kGiFdEX2JxJLXUvp6fgf2X7TcjY9/YRp5h5+89LboUcvOlm/fQ+b5taxaS50bn+fj5lkWtdN+eN1lAPhsbW+DdDv4D+2P8DquXVsmqu7ltKTA1zByGQQ965ncK38IOMC719wv/5oXETiOvzJF3Tuacvo7RddNXMITF5tmuPo/k1dSxGxvax0LbP1qg4RkXgsT2SbV//e6iJFRJKyPJFZ/eZHEZFUNEYmIranRCYitqdEJiK2p0QmIranRCYiNuSImnImWygiYgdqkYmI7SmRiYjtKZGJiM30HAJTIhMR24v7J0pdNXNyHYeISMZi3kcWK8kiEZGci/9kRYo/Gg9vpIQmIv0p+aNhab79IrYQJTYRybb0n2vN8DU+enBWRAYO3bUUEdv7f5RPI6Y9E5v1AAAAAElFTkSuQmCC;" vertex="1" parent="1">
                    <mxGeometry x="456.5" y="770" width="306" height="125" as="geometry"/>
                </mxCell>
                <mxCell id="86" style="edgeStyle=orthogonalEdgeStyle;html=1;exitX=0.5;exitY=1;exitDx=0;exitDy=0;" edge="1" parent="1" source="83" target="85">
                    <mxGeometry relative="1" as="geometry">
                        <Array as="points">
                            <mxPoint x="610" y="1080"/>
                            <mxPoint x="400" y="1080"/>
                            <mxPoint x="400" y="327"/>
                        </Array>
                    </mxGeometry>
                </mxCell>
                <mxCell id="83" value="" style="shape=image;verticalLabelPosition=bottom;labelBackgroundColor=default;verticalAlign=top;aspect=fixed;imageAspect=0;image=data:image/png,iVBORw0KGgoAAAANSUhEUgAAAVIAAAB8CAYAAAA7BDgdAAATg0lEQVR4nO3df3DU9Z3H8efukqCiglXraliCNr3Sche1gEKXFNozcxp/3JGxd4QK55BtO5Kb4hxe5gYpkVT9IwMz0ploe5dwHbSQXrk4c9bUa4YbadwSBIrQc4Q2FTab0FV+KIqIQNj74/vd7Hc3u5vNfr+bbOD1mGGG3e/3+/m8v5/97vv7+Xy+HxYXeKKIiEjO3GMdgIjIeKdEKiJi04TkN7x7V41FHCIi40Zk1oaE10MSKUAkenpUghERGW+8rquHvKehvYiITUqkIiI2KZGKiIxY4qpRJVIREZuUSEVEbHIkkd520svM96YlvPcXRRNpuOpK/m7SLU5UISJSsFIuf8r64AEPC3fdwfF3zgNQ/aVSfjPvLa4t+ojtRYcpGTgGnqtZNuFmXrpwlSMBi4gUhijgAmz0SK+4WEzNjm8MJlGAdw+d4mu//Sv+2XMNJdGPcLnAdfE0myf8ke5rzjPRduAiIoUnpx6pCxe3/+ZL/P7IMXC5LA+wovT+4TS/dt9O0TcG+I57DzAAuLjr/CF+eNVM6s+4nIpdRJw0+/ns9tuzIr9xjNTs5+HFb8GXb0y9/Z1jsPQXeY07p0RaEfkK7w+c45rpE7kYnoALuBhLptEofX88w69vuYO7v3KI211nABe4XDzhfp8fcBOfpSw1BLNftbz2wsvV4MslwnSS6wA2rgC/k3U4yYy3+n5YXTp089Z22EBu7RQ+AIt68tDGMq4Nl2yyTbaj6cVvURR4hfMtDw5Npu8cM7a9+K28hpA0tM/uF/VCxz7mmvIop+d8gHuSm6N/08e1k67A7fHgnjABt8fDx2fPg+cqcBeDpxjcxbg4y5NXT8pQshdeXmF8mKuAhgM5nFIIZrdDOIs6Ns6ElTtyqGM0eaFnb4rzCcGGSO7F+sphj5KoXAK+fCPnWx6kKPCK0fuMiSXRVAnWYTnNkbpv+4yb3pyK9/VpXPPNc0x7Zxqfnr+Ix+PB4/EwMGWAo1/Yz03uC4NJFHcR0eJb6LqY5UxpzSw40JMhITrAPx04kd86nFAGvHEq8b3gEaieOSbhiBSc5GQ6aknU6HzmNLQ/POk9Br4e5cz5C5T932243p+Iy0zJ567+jM8q/8D/3HQGb9QFFIPLRdQzhYdOX0fn2ZO5xRs+AIveiL8eHJKHYPZeqAbaLT20Rc+nHxLHBI9AeVm8V/bs89Bu/n3wWLP8VdfDhreNbau+DTWTh8a1aj5ssAyXE2KeCXsW5HbuS2fBoregJnb8KWg9AetmQfuJ+H5D4p8Cy38GlWa8wR3Qeh1sKo+f18vV4DP/vrEMVprxblwBve3xXu/gOVuPw0Y5Ig6zJlMYlZ5oTM7Ln96f9CH/sPNe/vT+KfBAlCgDk85z+hsHee3mj5nKx+Ayk6j7Wm4+4eG9iyP4Vamtey1JLmQkpFjyDB+ARe2WL3MEbv027En1RU8WMZIsGMlmkyXRrl4Bq4mXsbQ0Xv7hWUYiDO6AlbGklhTX1nZLPSFzDnKFUUZwB2w9lWMSKYXqVyG4wDz/EFA29PyGxF8Nm+6H2W9BzXRYCewpT1NHBFrLjCmP4A5Y+byR9PZMTjrn4ThVzjg3Xh/cSE5ySqQToh7+ce9DvPP+SdweDwDnrzjH8YW/51clZ5juOg0UAxD1XEf1R1fwx88PcODCRBac+JCBaLq5WEuSY2b8Sx8+ZbyOPRTylUP1G9CLmUy8MD/bBGU+xOIALDqS2GMN7oCVb8f3sx6z1NzPPx2IzVmegvL58bhqZsGGvZaYrecDVE8HLHGOpMe6dL4xZ+wvhxffgNoVQChxn5Txl8LGI8ZDq42ZvrReWFduOccT8Ta1nvOwc6pOlTPOKUGOPutwHkZtfhRyTKQPnJ3NHyIfGUnUzIk3lkzkX285xxfcZ4gyEZfLxdsDbn7x2Y38x5Sz/PjsVZRPuMA3JxbTeTb1c/v8PKlPw1cOq9rjvcTwAbPHtgI4Bcu3O1DJMMnRV56hh5i8bymwHYJAz3yz52mRl/hFxokUc6KxYX7hPmxyu3G7PXg8xhN6t8dD0YQJED2Hy12Ey1MMniJwF/NPV55mius0uIrMP56RV+ibDLxtJBEwkkb7TPvLlmpmwYbtRg+p9wMov84sPwTZLBjwTYYDb8Tj2rp3aMxbT6U6MgeTofZ6Y+6xMsW8b9r4Q2aCvd+hFQpToDxijAbAmGcWGUvpHiyle5qfBzn1SF+e2M1873yuODaZqDlMP/PBRQ4O/CUPTgjhip4FF8wsdgOfgcvNv1x1nOC5Iv737Kc51FgKL8+3DJNjw/M0+1a/mt3DJkph1V5jyLzpDmj9Gcx+A8pnQlYdxVJzCZUZ16r5QE9SzD8z1npCFvEMw3+HEVeqeVZ/qvhPwfJXjTlKJhvnuvyA+bApV5Oh1nLOWjlwaSnEdaLDWfoLY51oql6nmUzzvSDflfjfMUfx7n0iq/9qpHigiId++xAff3rBPDLKlM+7+NqCHr5/7VFc0cSEGaWIvz3p5pUzTvXQClD4ACz6IPen8yJS8Lyuq4nMWm95x5X7v7U/5znP23fv4ewNp3F53Lg9Hk58cp7V7x3h6U+uJeq6cnDfqOsa/v7DKy7tJArGQ6DY8FpELhu2fv3pneIQR+6M8NWTX+HkJ+c46g1zpvgT1p78hN4LN1HCaXBdzXMff8CpixecirmAnDLWaQ7OR87M/uGRiFwych7ai4hcjhwd2ouIiEGJVETEJiVSERGblEhFRGxSIhURsUmJVETEJiVSERGbUi7IL2nYM9pxiIiMCwONC4e8px6piIhNSqQiIjYpkYqI2KREKiJikxKpiIhNSqQiIjYpkYqI2KREKiJikxKpiIhNSqQiIjYpkYqI2DQKibSSppZN1PnyX5PEVNLU0knQ/NM0N90+WX4uvlrazLLaqstsxKTrQGya2zh4XQdbGqka63hMtv4X0QS+WtoaFmP9ngRbKqnvdqwGGVRJU0sNoXXLaQ6n22cnzwTW0mG7rjLqvreY3pZKFjv2WWYTfwoJ11im88ux/GzKSBtDJU0t9fgHdwyzJVX9cxsJBqam3lbo5jYSDMwz/h5po3ZNKwcpo+7pF1jiTdzV+O6PZFuK9kpVX/da/N1gtHeF46eYK2cSqXnCwYQvWyVNT9cyo7vXkSpkrNxKqTdMqH+s40hK6HMbCT5dy7trWjnocE1VdZ08eSdAmFC2MfimMW1fE/7mTgBmVG+i9Xu1bLfG56ulLTAPGG8ZFPM7Ds8EKlPevDJ1mlJu8y2g4s9N+Nekaa9h6is0DiTSMuoemEe447Gkxuqkfg1ApfFyTiPBBuPuEu54jMXtPcb7CXf4pLtSpm3WuxXA4EWc2DNI/wGbPY6OPpZUWeI6umyw3Hicyb2NpLsqsbszGXocaeobth3M41qCVAQW42M/wcjt+AF/QydLRtTzHNprCqXZFj+/+qS6uliYsi0ssSbHntAWqcrMIn7fAiq8YbpiCb0/RNhbym2QlEjTlJ/pWkrS0VxJhxl71jGEW1ncHN/14NE+qLLGV0lTg5+udU2UNiSVm9FoX6epGN/xYIuDSS25vXYHCQ+2Vw71mZ9v7xiNgu0n0tjFtbsn004suXkr/sBa8wNcRlX7WuNibUi6wzc0cjgwzDZfLW2BqWxZVxn/wtZB7Es0reMx/O09ZuM2UtWd7otqictXS1vDCwT3NVlex+LspD7QaTksXm7zmsfg6Rd4qnoHi9tvpcnsmae+OJPbYTV1u5fTHM7UDuZxD0BtoDL+pRzx0DWpbRISRfp2a17TRGlSXR1p2iK7i74nRZmph4AxwZZK6vsB+jiccL5TudVHUgcvVfnDte9IZBMDzLhlKkSCvEvs/OqhpdL4rEdcZz6v02za3viO80AnwYDlfUvC8gdy2xZT9dBi6HjM+Dx8w9dXaByaI02+uJKF2fLf5gfc3UUwUGNcfCUV+NnJM7EG6u4iGKhn4VzoIMO2fgAfpSWYF3An9c2Ar5YK7042x3p54R10RV4wjkn5IVjiCvfSS5iuhNd+y5dkaG/O2NZD80/aqGhYRh1T8e9rMudwsmmHeuMcMrVDt3ncT2wOYX0LEtsm07Zh2y1dW+QaXA/NayppzrTL3NKE+ffY55OVucO1b5ZKsozBV8tTVT6CLcZnVlX3Akv+nOm6GE4+r9Ps237LT8wOwtxGgoHYzTPx+BnVm2gNbKKufznN4UzbLO9V+cxzNK+/kkz1pWuiVhYHWrNrzjxw6Km9eVfORSRk3rUBDhOKZLEt3Mrilp3Gnc76ZLqkFB/zeHLwqV76O+3IGBfntI7H8Acq8QeaCFo3h1t5qmMqS6r6eKa5M10hSbI8V6ckJ4Eh27Jtt2HaIl/6Q4l52jeNaSM53on2zSoGo/fL4FRXGbfeDNxZb7ZtPX58LGlIt5rCjnxcpzGWzlJ3F0HmsTBF/AfbtxKMdXKy2HawfbkRa0sfSxqsT+Gzq69Q2O+RhnfQFVlMxZwymsOZhvdpJMxz3UqpN8ttg0/viN+xWsC5p9UWsR5Nqt4cmD2QPoL75vFkXSUdWV2kIzhXJ/SHCFOaYYcs2224tshJtkP75GH0cCMhC8faN1MM8UQ2OPc9pMfnxIqCNHK6TrNp+xDhhF4vgMMPIK11jEZ9DnOgR9pD8y934qt6IekOaz61z3SoeadZFlubaF4Ir3cPs21uY+J6xv4Q4UiId7s3syViOQaYUd1of+1if4iwtdc9t8IydIo9yV1LfXMTwTvrs+tpZHuuaaW+66cV7qXXele3nsNI2i1jWxwmFInHNaO6JsPg2xq/kWyMXtTQP/XdmDdsyzElpfgSepkZys+pfVPIGEOqJJqdGdWbnFkTmdN1mn3bV8wpM+OtwR+7gfhqaaurtJxLTbxtM22b25jwPZkxx48vEmR7eJj60jHXOjvfy8+OM3Ok3Wvx99fS1hCfHAbjbnaQyvTH0Un9umnG5HkVxJ6mdgy3rbuL3pbY+/FtB4GDa5ootW6LtFHbbvP8wq081eGntaGTJQD7dppDJvNuPjj/1Ul9SwXBQCdNpJocN4Z0SywxD3uuKXWyqaOG1kAnwUC2PfB4bMGA9Rwg/oAmi3ZL2xZmOb/cOVhHuKONYMpUmkv8RoxNLbFrbCfPBNLNGw8tfyTtG1/+ZD75H1wzmSGGWNKqsl6XSSszUirjr7/qI9zxrP1RlGPXabLk6yPMlnXmZxbupffOeoIt9ea+ls8z07b+ENMS8oX188xQX4FygScafxnFu/cJPGtfH7uILll5HNKlrKuC152e4hDn+Wppa/DTNR4X6I+psbvGBxoXEpm13vKOy8F/2SQFxnh49CSFv3TkslZSim/fViXRbCWsH99JoXT5lEgvSUnrCaVwWR+ayvAKtL2USEeNkpvIpUo/oyciYpMSqYiITUqkIiI2OT5H+p05hfJTqyIimf37bmcWT+XlYVN5xaf5KFZExDEHuq50rKy8Du1ffOa6fBYvIlIQNEcqImKTEqmIiE1KpCIiNimRiojYpEQqImKTEqmIiE1KpCIiNimRiojYpEQqImKTEqmIiE1KpCIiNimRiojYpEQqImKTEqmIiE1KpCIiNuU1kS598oN8Fi8iUhDy8gv5Tv7ytIhIoXM8kTr1f6CIiIwXmiMVEbFJiVRExCYlUhERm5RIRURsUiIVEbHJ8af299Tc43SRIiKO277+50RLrnekrLysIz197MN8FCsi4oi+t/7kaHka2ouI2KREKiJikxKpFKA51D/+A5bcMNZxiGQnL3OkIoY51D/+KHdZ3+r5KQ//cvco1n8vfS/9kC3HrX8fperlsqFEKnlSwpJlj8Kv6nj4UOy9OdQv8zIdODIqMeym6bnRStpyOVMilfy44avc/bn9/Nch65u7adoc+3tyDzFFj/GL32XbI7cD0L/rWVbu7I/vt+s9qu+2bDt5P9vuS7PvS5ugyugZ3/VIM9Xs50fP/Ru/yXMTyOVDc6SSH8d/x66Tt/P9ZQ8yPacCvFRfv4+Hn6vj4V/tp+Tu5ZY5U8u2l16Du1ez7YvW1/fz9YSy+tmy+ae8SYT2l+p4WElUHKYeqeRJP1s2PwvLVrP+8XvN9yK0Zz1HGaG92xyWH9rHm/c9ytTrgeNJ245H6CfCroTXdzD1hti+IvmnRCp51M+WzXVsMV9Nn/cD1j/yXfpG3CM8St9JmOp8gCKO0NBeRs2Rna/xJjcZvcURuYWpn8tHRCLOUCKV/LjhQTY+MCfxvS/dyV0n3+K3x8HoZXqN4Towfd69icukko9jP92H0u2QrXh9Ik7S0F7y4/jv2PW51Wx7/FHLm/v50XOvmEuf+tmyaz/b7mtm233Qv+s13uQOy75eqh9pphqIza3ae0C0m//cdS/r72tm2316ai/OcoEnGn8Zxbv3CTxrX8+5wHtq7tGPlohIQet760/07+/J6defBhoXEpm13vKOS0N7ERG78jK0d/onqkRECpnjiXT7+p87XaSISEFzPJE69YvTIiLjheZIRURsUiIVEbFJiVRExCYlUhERm5RIRURy5gKGJFLXGAQiIjK+qUcqImKTEqmIiE1KpCIiOYlPhSqRiojYlPKfiA40LhztOERExq2k3yNNlmGTiMhlK3GF0zA/WhLbWQlVRCTdEtEsf/0p+WAlVhG5XAy/vj7Hn9HTwn0RkRg9tRcRsen/AXIXceYXqjK+AAAAAElFTkSuQmCC;" vertex="1" parent="1">
                    <mxGeometry x="441" y="946" width="338" height="124" as="geometry"/>
                </mxCell>
                <mxCell id="85" value="#scan_TCP" style="rounded=1;whiteSpace=wrap;html=1;fontFamily=Consolas;fillColor=#030303;fontColor=#ffffff;strokeColor=#005700;gradientColor=none;gradientDirection=radial;fontSize=19;" vertex="1" parent="1">
                    <mxGeometry x="-45" y="281.8" width="300" height="90" as="geometry"/>
                </mxCell>
                <mxCell id="90" style="html=1;fontSize=19;" edge="1" parent="1" source="87" target="48">
                    <mxGeometry relative="1" as="geometry"/>
                </mxCell>
                <mxCell id="87" value="Repeats&amp;nbsp; &amp;nbsp; &amp;nbsp; &amp;nbsp; &amp;nbsp; &amp;nbsp; &amp;nbsp; &amp;nbsp; &amp;nbsp; &amp;nbsp; &amp;nbsp;" style="points=[[0.25,0,0],[0.5,0,0],[0.75,0,0],[1,0.25,0],[1,0.5,0],[1,0.75,0],[0.75,1,0],[0.5,1,0],[0.25,1,0],[0,0.75,0],[0,0.5,0],[0,0.25,0]];shape=mxgraph.bpmn.task;whiteSpace=wrap;rectStyle=rounded;size=10;html=1;taskMarker=abstract;isLoopStandard=1;fontSize=19;strokeWidth=1;perimeterSpacing=1;verticalAlign=bottom;" vertex="1" parent="1">
                    <mxGeometry x="-85" y="371.8" width="370" height="248.2" as="geometry"/>
                </mxCell>
                <mxCell id="75" value="&lt;font color=&quot;#195eff&quot; style=&quot;font-size: 32px;&quot;&gt;@threadify&lt;/font&gt;" style="rounded=1;whiteSpace=wrap;html=1;dashed=1;strokeColor=#001DBC;strokeWidth=2;fontFamily=Consolas;fontSize=32;fillColor=none;gradientDirection=radial;arcSize=33;fontColor=#ffffff;perimeterSpacing=0;verticalAlign=bottom;" parent="1" vertex="1">
                    <mxGeometry x="-65" y="387.7" width="330" height="170" as="geometry"/>
                </mxCell>
                <mxCell id="91" style="edgeStyle=none;html=1;fontSize=19;" edge="1" parent="1" source="89" target="29">
                    <mxGeometry relative="1" as="geometry"/>
                </mxCell>
                <mxCell id="89" value="#scan_port" style="rounded=1;whiteSpace=wrap;html=1;fontFamily=Consolas;fillColor=#030303;fontColor=#ffffff;strokeColor=#005700;gradientColor=none;gradientDirection=radial;fontSize=19;" vertex="1" parent="1">
                    <mxGeometry y="410" width="190" height="90" as="geometry"/>
                </mxCell>
                <mxCell id="93" style="edgeStyle=none;html=1;fontSize=19;exitX=1;exitY=0.25;exitDx=0;exitDy=0;" edge="1" parent="1" source="41" target="89">
                    <mxGeometry relative="1" as="geometry"/>
                </mxCell>
                <mxCell id="94" value="&lt;font style=&quot;&quot;&gt;&lt;span style=&quot;font-size: 18px;&quot;&gt;IP&lt;br&gt;&lt;/span&gt;&lt;/font&gt;&lt;font style=&quot;font-size: 11px;&quot;&gt;dst=target&lt;/font&gt;" style="rounded=1;whiteSpace=wrap;html=1;fontFamily=Consolas;fillColor=#60a917;fontColor=#ffffff;strokeColor=#2D7600;" vertex="1" parent="1">
                    <mxGeometry x="1221" y="177" width="170" height="60" as="geometry"/>
                </mxCell>
                <mxCell id="95" value="&lt;font style=&quot;&quot;&gt;&lt;span style=&quot;font-size: 18px;&quot;&gt;TCP SYN&lt;br&gt;&lt;/span&gt;&lt;/font&gt;&lt;font style=&quot;font-size: 11px;&quot;&gt;dport=port range&lt;br&gt;seq=random&lt;br&gt;&lt;/font&gt;" style="rounded=1;whiteSpace=wrap;html=1;fontFamily=Consolas;fillColor=#0050ef;fontColor=#ffffff;strokeColor=#001DBC;" vertex="1" parent="1">
                    <mxGeometry x="1391" y="177" width="150" height="60" as="geometry"/>
                </mxCell>
                <mxCell id="98" value="&lt;font style=&quot;&quot;&gt;&lt;span style=&quot;font-size: 18px;&quot;&gt;TCP SYN ACK&lt;/span&gt;&lt;/font&gt;" style="rounded=1;whiteSpace=wrap;html=1;fontFamily=Consolas;fillColor=#002F8C;fontColor=#ffffff;strokeColor=#001DBC;" vertex="1" parent="1">
                    <mxGeometry x="1375" y="490.00000000000006" width="150" height="60" as="geometry"/>
                </mxCell>
                <mxCell id="103" value="" style="endArrow=classic;html=1;fontFamily=Consolas;fontSize=32;fontColor=#195EFF;strokeWidth=4;" edge="1" parent="1">
                    <mxGeometry width="50" height="50" relative="1" as="geometry">
                        <mxPoint x="1080" y="650" as="sourcePoint"/>
                        <mxPoint x="1560" y="780" as="targetPoint"/>
                    </mxGeometry>
                </mxCell>
                <mxCell id="105" value="" style="endArrow=none;html=1;fontFamily=Consolas;fontSize=32;fontColor=#195EFF;strokeWidth=4;startArrow=none;" edge="1" parent="1" target="104">
                    <mxGeometry width="50" height="50" relative="1" as="geometry">
                        <mxPoint x="1080" y="710" as="sourcePoint"/>
                        <mxPoint x="1025.8823529411766" y="790" as="targetPoint"/>
                    </mxGeometry>
                </mxCell>
                <mxCell id="104" value="&lt;font style=&quot;&quot;&gt;&lt;span style=&quot;font-size: 18px;&quot;&gt;Ports&lt;/span&gt;&lt;/font&gt;" style="rounded=1;whiteSpace=wrap;html=1;fontFamily=Consolas;fillColor=#002F8C;fontColor=#ffffff;strokeColor=#001DBC;" vertex="1" parent="1">
                    <mxGeometry x="1020" y="730" width="60" height="30" as="geometry"/>
                </mxCell>
                <mxCell id="100" value="&lt;font style=&quot;font-size: 18px;&quot;&gt;Ether&lt;/font&gt;" style="rounded=1;whiteSpace=wrap;html=1;fontFamily=Consolas;fillColor=#a20025;fontColor=#ffffff;strokeColor=#6F0000;horizontal=0;" vertex="1" parent="1">
                    <mxGeometry x="1180" y="683.6" width="30" height="60" as="geometry"/>
                </mxCell>
                <mxCell id="101" value="&lt;font style=&quot;&quot;&gt;&lt;span style=&quot;font-size: 18px;&quot;&gt;IP&lt;br&gt;&lt;/span&gt;&lt;/font&gt;&lt;font style=&quot;font-size: 11px;&quot;&gt;dst=target&lt;/font&gt;" style="rounded=1;whiteSpace=wrap;html=1;fontFamily=Consolas;fillColor=#60a917;fontColor=#ffffff;strokeColor=#2D7600;" vertex="1" parent="1">
                    <mxGeometry x="1210" y="683.6" width="170" height="60" as="geometry"/>
                </mxCell>
                <mxCell id="102" value="&lt;font style=&quot;&quot;&gt;&lt;span style=&quot;font-size: 18px;&quot;&gt;TCP ACK&lt;/span&gt;&lt;/font&gt;&lt;font style=&quot;font-size: 11px;&quot;&gt;&lt;br&gt;&lt;/font&gt;" style="rounded=1;whiteSpace=wrap;html=1;fontFamily=Consolas;fillColor=#0050ef;fontColor=#ffffff;strokeColor=#001DBC;" vertex="1" parent="1">
                    <mxGeometry x="1380" y="683.6" width="150" height="60" as="geometry"/>
                </mxCell>
                <mxCell id="107" value="" style="verticalLabelPosition=bottom;verticalAlign=top;html=1;shape=mxgraph.basic.no_symbol;strokeWidth=1;fontSize=19;fillColor=#FF3333;opacity=40;" vertex="1" parent="1">
                    <mxGeometry x="1230" y="610" width="221" height="221" as="geometry"/>
                </mxCell>
                <mxCell id="108" style="edgeStyle=none;html=1;entryX=0.987;entryY=0.117;entryDx=0;entryDy=0;entryPerimeter=0;" edge="1" parent="1" source="9" target="15">
                    <mxGeometry relative="1" as="geometry">
                        <mxPoint x="-452.86608826857787" y="462.5999999999999" as="sourcePoint"/>
                        <mxPoint x="-543.6251980384761" y="631.8" as="targetPoint"/>
                    </mxGeometry>
                </mxCell>
                <mxCell id="109" style="edgeStyle=none;html=1;entryX=0.638;entryY=-0.023;entryDx=0;entryDy=0;entryPerimeter=0;" edge="1" parent="1" source="9" target="15">
                    <mxGeometry relative="1" as="geometry">
                        <mxPoint x="-450.5" y="462.5999999999999" as="sourcePoint"/>
                        <mxPoint x="-537.9928" y="639.0306" as="targetPoint"/>
                    </mxGeometry>
                </mxCell>
                <mxCell id="110" style="edgeStyle=none;html=1;entryX=1.043;entryY=0.322;entryDx=0;entryDy=0;entryPerimeter=0;" edge="1" parent="1" source="9" target="15">
                    <mxGeometry relative="1" as="geometry">
                        <mxPoint x="-455.95008647702156" y="462.6" as="sourcePoint"/>
                        <mxPoint x="-553.9072" y="630.3786" as="targetPoint"/>
                    </mxGeometry>
                </mxCell>
                <mxCell id="111" style="edgeStyle=none;html=1;entryX=0.436;entryY=-0.021;entryDx=0;entryDy=0;entryPerimeter=0;" edge="1" parent="1" source="9" target="15">
                    <mxGeometry relative="1" as="geometry">
                        <mxPoint x="-445.95008647702156" y="472.6" as="sourcePoint"/>
                        <mxPoint x="-543.9072" y="640.3786" as="targetPoint"/>
                    </mxGeometry>
                </mxCell>
            </root>
        </mxGraphModel>
    </diagram>
</mxfile>
